<svg height="1806" width="720" xmlns="http://www.w3.org/2000/svg">
<rect height="1806" fill="#555" width="720"></rect>
<text fill="#7f7" font-family="Courier New" font-size="12" xml:space="preserve">
<tspan x="10" y="26">└─┬ gulp-check-unused-css@2.1.3 </tspan>
<tspan x="10" y="42">  ├─┬ css@2.1.0 </tspan>
<tspan x="10" y="58">  │ ├── inherits@2.0.3 </tspan>
<tspan x="10" y="74">  │ ├─┬ source-map@0.1.43 </tspan>
<tspan x="10" y="90">  │ │ └── amdefine@1.0.1 </tspan>
<tspan x="10" y="106">  │ ├─┬ source-map-resolve@0.3.1 </tspan>
<tspan x="10" y="122">  │ │ ├── atob@1.1.3 </tspan>
<tspan x="10" y="138">  │ │ ├── resolve-url@0.2.1 </tspan>
<tspan x="10" y="154">  │ │ └── source-map-url@0.3.0 </tspan>
<tspan x="10" y="170">  │ └── urix@0.1.0 </tspan>
<tspan x="10" y="186">  ├─┬ glob@4.0.5 </tspan>
<tspan x="10" y="202">  │ ├─┬ graceful-fs@3.0.11 </tspan>
<tspan x="10" y="218">  │ │ └── natives@1.1.0 </tspan>
<tspan x="10" y="234">  │ ├─┬ minimatch@1.0.0 </tspan>
<tspan x="10" y="250">  │ │ ├── lru-cache@2.7.3 </tspan>
<tspan x="10" y="266">  │ │ └── sigmund@1.0.1 </tspan>
<tspan x="10" y="282">  │ └─┬ once@1.4.0 </tspan>
<tspan x="10" y="298">  │   └── wrappy@1.0.2 </tspan>
<tspan x="10" y="314">  ├─┬ gulp-util@3.0.0 </tspan>
<tspan x="10" y="330">  │ ├─┬ chalk@0.5.1 </tspan>
<tspan x="10" y="346">  │ │ ├── ansi-styles@1.1.0 </tspan>
<tspan x="10" y="362">  │ │ ├── escape-string-regexp@1.0.5 </tspan>
<tspan x="10" y="378">  │ │ ├─┬ has-ansi@0.1.0 </tspan>
<tspan x="10" y="394">  │ │ │ └── ansi-regex@0.2.1 </tspan>
<tspan x="10" y="410">  │ │ ├── strip-ansi@0.3.0 </tspan>
<tspan x="10" y="426">  │ │ └── supports-color@0.2.0 </tspan>
<tspan x="10" y="442">  │ ├─┬ dateformat@1.0.12 </tspan>
<tspan x="10" y="458">  │ │ ├── get-stdin@4.0.1 </tspan>
<tspan x="10" y="474">  │ │ └─┬ meow@3.7.0 </tspan>
<tspan x="10" y="490">  │ │   ├─┬ camelcase-keys@2.1.0 </tspan>
<tspan x="10" y="506">  │ │   │ └── camelcase@2.1.1 </tspan>
<tspan x="10" y="522">  │ │   ├── decamelize@1.2.0 </tspan>
<tspan x="10" y="538">  │ │   ├─┬ loud-rejection@1.6.0 </tspan>
<tspan x="10" y="554">  │ │   │ ├─┬ currently-unhandled@0.4.1 </tspan>
<tspan x="10" y="570">  │ │   │ │ └── array-find-index@1.0.2 </tspan>
<tspan x="10" y="586">  │ │   │ └── signal-exit@3.0.2 </tspan>
<tspan x="10" y="602">  │ │   ├── map-obj@1.0.1 </tspan>
<tspan x="10" y="618">  │ │   ├── minimist@1.2.0 </tspan>
<tspan x="10" y="634">  │ │   ├─┬ normalize-package-data@2.3.6 </tspan>
<tspan x="10" y="650">  │ │   │ ├── hosted-git-info@2.4.1 </tspan>
<tspan x="10" y="666">  │ │   │ ├─┬ is-builtin-module@1.0.0 </tspan>
<tspan x="10" y="682">  │ │   │ │ └── builtin-modules@1.1.1 </tspan>
<tspan x="10" y="698">  │ │   │ ├── semver@5.3.0 </tspan>
<tspan x="10" y="714">  │ │   │ └─┬ validate-npm-package-license@3.0.1 </tspan>
<tspan x="10" y="730">  │ │   │   ├─┬ spdx-correct@1.0.2 </tspan>
<tspan x="10" y="746">  │ │   │   │ └── spdx-license-ids@1.2.2 </tspan>
<tspan x="10" y="762">  │ │   │   └── spdx-expression-parse@1.0.4 </tspan>
<tspan x="10" y="778">  │ │   ├── object-assign@4.1.1 </tspan>
<tspan x="10" y="794">  │ │   ├─┬ read-pkg-up@1.0.1 </tspan>
<tspan x="10" y="810">  │ │   │ ├─┬ find-up@1.1.2 </tspan>
<tspan x="10" y="826">  │ │   │ │ ├── path-exists@2.1.0 </tspan>
<tspan x="10" y="842">  │ │   │ │ └─┬ pinkie-promise@2.0.1 </tspan>
<tspan x="10" y="858">  │ │   │ │   └── pinkie@2.0.4 </tspan>
<tspan x="10" y="874">  │ │   │ └─┬ read-pkg@1.1.0 </tspan>
<tspan x="10" y="890">  │ │   │   ├─┬ load-json-file@1.1.0 </tspan>
<tspan x="10" y="906">  │ │   │   │ ├── graceful-fs@4.1.11 </tspan>
<tspan x="10" y="922">  │ │   │   │ ├─┬ parse-json@2.2.0 </tspan>
<tspan x="10" y="938">  │ │   │   │ │ └─┬ error-ex@1.3.1 </tspan>
<tspan x="10" y="954">  │ │   │   │ │   └── is-arrayish@0.2.1 </tspan>
<tspan x="10" y="970">  │ │   │   │ ├── pify@2.3.0 </tspan>
<tspan x="10" y="986">  │ │   │   │ └─┬ strip-bom@2.0.0 </tspan>
<tspan x="10" y="1002">  │ │   │   │   └── is-utf8@0.2.1 </tspan>
<tspan x="10" y="1018">  │ │   │   └─┬ path-type@1.1.0 </tspan>
<tspan x="10" y="1034">  │ │   │     └── graceful-fs@4.1.11 </tspan>
<tspan x="10" y="1050">  │ │   ├─┬ redent@1.0.0 </tspan>
<tspan x="10" y="1066">  │ │   │ ├─┬ indent-string@2.1.0 </tspan>
<tspan x="10" y="1082">  │ │   │ │ └─┬ repeating@2.0.1 </tspan>
<tspan x="10" y="1098">  │ │   │ │   └─┬ is-finite@1.0.2 </tspan>
<tspan x="10" y="1114">  │ │   │ │     └── number-is-nan@1.0.1 </tspan>
<tspan x="10" y="1130">  │ │   │ └── strip-indent@1.0.1 </tspan>
<tspan x="10" y="1146">  │ │   └── trim-newlines@1.0.0 </tspan>
<tspan x="10" y="1162">  │ ├── lodash._reinterpolate@2.4.1 </tspan>
<tspan x="10" y="1178">  │ ├─┬ lodash.template@2.4.1 </tspan>
<tspan x="10" y="1194">  │ │ ├── lodash._escapestringchar@2.4.1 </tspan>
<tspan x="10" y="1210">  │ │ ├─┬ lodash.defaults@2.4.1 </tspan>
<tspan x="10" y="1226">  │ │ │ └── lodash._objecttypes@2.4.1 </tspan>
<tspan x="10" y="1242">  │ │ ├─┬ lodash.escape@2.4.1 </tspan>
<tspan x="10" y="1258">  │ │ │ ├─┬ lodash._escapehtmlchar@2.4.1 </tspan>
<tspan x="10" y="1274">  │ │ │ │ └── lodash._htmlescapes@2.4.1 </tspan>
<tspan x="10" y="1290">  │ │ │ └── lodash._reunescapedhtml@2.4.1 </tspan>
<tspan x="10" y="1306">  │ │ ├─┬ lodash.keys@2.4.1 </tspan>
<tspan x="10" y="1322">  │ │ │ ├── lodash._isnative@2.4.1 </tspan>
<tspan x="10" y="1338">  │ │ │ ├── lodash._shimkeys@2.4.1 </tspan>
<tspan x="10" y="1354">  │ │ │ └── lodash.isobject@2.4.1 </tspan>
<tspan x="10" y="1370">  │ │ ├── lodash.templatesettings@2.4.1 </tspan>
<tspan x="10" y="1386">  │ │ └── lodash.values@2.4.1 </tspan>
<tspan x="10" y="1402">  │ ├── minimist@0.2.0 </tspan>
<tspan x="10" y="1418">  │ ├─┬ multipipe@0.1.2 </tspan>
<tspan x="10" y="1434">  │ │ └── duplexer2@0.0.2 </tspan>
<tspan x="10" y="1450">  │ ├─┬ through2@0.5.1 </tspan>
<tspan x="10" y="1466">  │ │ ├── readable-stream@1.0.34 </tspan>
<tspan x="10" y="1482">  │ │ └── xtend@3.0.0 </tspan>
<tspan x="10" y="1498">  │ └─┬ vinyl@0.2.3 </tspan>
<tspan x="10" y="1514">  │   └── clone-stats@0.0.1 </tspan>
<tspan x="10" y="1530">  ├─┬ htmlparser2@3.7.3 </tspan>
<tspan x="10" y="1546">  │ ├── domelementtype@1.3.0 </tspan>
<tspan x="10" y="1562">  │ ├── domhandler@2.2.1 </tspan>
<tspan x="10" y="1578">  │ ├─┬ domutils@1.5.1 </tspan>
<tspan x="10" y="1594">  │ │ └─┬ dom-serializer@0.1.0 </tspan>
<tspan x="10" y="1610">  │ │   ├── domelementtype@1.1.3 </tspan>
<tspan x="10" y="1626">  │ │   └── entities@1.1.1 </tspan>
<tspan x="10" y="1642">  │ ├── entities@1.0.0 </tspan>
<tspan x="10" y="1658">  │ └─┬ readable-stream@1.1.14 </tspan>
<tspan x="10" y="1674">  │   ├── core-util-is@1.0.2 </tspan>
<tspan x="10" y="1690">  │   ├── isarray@0.0.1 </tspan>
<tspan x="10" y="1706">  │   └── string_decoder@0.10.31 </tspan>
<tspan x="10" y="1722">  ├── lodash@2.4.1 </tspan>
<tspan x="10" y="1738">  ├── q@1.0.1 </tspan>
<tspan x="10" y="1754">  └─┬ through2@0.6.1 </tspan>
<tspan x="10" y="1770">    ├── readable-stream@1.0.34 </tspan>
<tspan x="10" y="1786">    └── xtend@4.0.1</tspan>
</text>
</svg>
